HIERARCHY
ROOT Hips
{
  OFFSET -102.467 93.6631 130.069
  CHANNELS 6 Xposition Yposition Zposition Zrotation Xrotation Yrotation
  JOINT LeftUpLeg
  {
    OFFSET 8.64259 1.95398 -2.38835
    CHANNELS 3 Zrotation Xrotation Yrotation
    JOINT LeftLeg
    {
      OFFSET 43.7702 0 0
      CHANNELS 3 Zrotation Xrotation Yrotation
      JOINT LeftFoot
      {
        OFFSET 40.6238 0 0
        CHANNELS 3 Zrotation Xrotation Yrotation
        JOINT LeftToeBase
        {
          OFFSET 12.7242 0 0
          CHANNELS 3 Zrotation Xrotation Yrotation
          End Site
          {
            OFFSET 0 0 0
          }
        }
      }
    }
  }
  JOINT RightUpLeg
  {
    OFFSET -8.2249 1.95398 -2.59336
    CHANNELS 3 Zrotation Xrotation Yrotation
    JOINT RightLeg
    {
      OFFSET 43.5653 0 0
      CHANNELS 3 Zrotation Xrotation Yrotation
      JOINT RightFoot
      {
        OFFSET 40.6238 0 0
        CHANNELS 3 Zrotation Xrotation Yrotation
        JOINT RightToeBase
        {
          OFFSET 12.7242 0 0
          CHANNELS 3 Zrotation Xrotation Yrotation
          End Site
          {
            OFFSET 0 0 0
          }
        }
      }
    }
  }
  JOINT Spine
  {
    OFFSET 0.165834 0.87714 6.61349
    CHANNELS 3 Zrotation Xrotation Yrotation
    JOINT Spine1
    {
      OFFSET 7.38963 1.71661e-005 0
      CHANNELS 3 Zrotation Xrotation Yrotation
      JOINT Spine2
      {
        OFFSET 11.9445 1.14441e-005 0
        CHANNELS 3 Zrotation Xrotation Yrotation
        JOINT Spine3
        {
          OFFSET 14.7254 4.19617e-005 0
          CHANNELS 3 Zrotation Xrotation Yrotation
          JOINT Spine4
          {
            OFFSET 10.9679 0 0
            CHANNELS 3 Zrotation Xrotation Yrotation
            JOINT RightShoulder
            {
              OFFSET 2.46616 -1.6653 3.69651
              CHANNELS 3 Zrotation Xrotation Yrotation
              JOINT RightArm
              {
                OFFSET 13.0012 0 0
                CHANNELS 3 Zrotation Xrotation Yrotation
                JOINT RightForeArm
                {
                  OFFSET 28.7848 1.52588e-005 0
                  CHANNELS 3 Zrotation Xrotation Yrotation
                  JOINT RightHand
                  {
                    OFFSET 26.5688 1.52588e-005 0
                    CHANNELS 3 Zrotation Xrotation Yrotation
                    End Site
                    {
                      OFFSET 0 0 0
                    }
                  }
                }
              }
            }
            JOINT LeftShoulder
            {
              OFFSET 2.38034 -1.29275 -3.7523
              CHANNELS 3 Zrotation Xrotation Yrotation
              JOINT LeftArm
              {
                OFFSET 16.3182 6.10351e-005 0
                CHANNELS 3 Zrotation Xrotation Yrotation
                JOINT LeftForeArm
                {
                  OFFSET 27.0901 0 0
                  CHANNELS 3 Zrotation Xrotation Yrotation
                  JOINT LeftHand
                  {
                    OFFSET 24.5451 1.52588e-005 0
                    CHANNELS 3 Zrotation Xrotation Yrotation
                    End Site
                    {
                      OFFSET 0 0 0
                    }
                  }
                }
              }
            }
            JOINT Neck
            {
              OFFSET 5.0226 -0.0266342 0
              CHANNELS 3 Zrotation Xrotation Yrotation
              JOINT Head
              {
                OFFSET 6.69363 2.86102e-005 0
                CHANNELS 3 Zrotation Xrotation Yrotation
                End Site
                {
                  OFFSET 0 0 0
                }
              }
            }
          }
        }
      }
    }
  }
}
MOTION
Frames:	6
Frame Time:	0.0416667
-121.706 89.823 -92.3209 86.6045 -40.6295 89.6252 175.646 52.2924 86.2691 -91.4454 7.99302 3.2003 50.5176 1.02761 16.1425 55.0208 -2.01392 3.67456 173.599 -2.30815 94.4907 -38.7616 -13.4024 4.36085 66.5033 3.0721 10.28 53.9629 -2.27353 9.8651 1.70337 8.2874 -90.6496 10.3212 3.09642 -1.55828 -1.34717 3.02486 -1.69314 -23.9105 3.42147 -0.554729 -3.89782 3.4215 -0.554725 98.4567 -43.5122 -88.4525 24.8289 -44.3438 1.06203 2.6432 14.6675 -107.342 -10.7319 -0.545344 0.757577 -82.2912 -46.4187 89.8094 17.5103 57.296 -9.93831 -31.2455 -13.5839 -108.751 12.5691 -1.04859 -11.6665 15.6046 -5.53521 -1.57778 -14.843 -4.49374 -4.86876 
-101.352 92.7049 -72.6585 85.0467 -41.4837 88.3118 176.044 50.3852 86.1765 -50.13 11.1036 2.19694 50.6885 -2.1897 8.38529 55.8038 -1.91824 4.1994 177.199 -22.7174 93.334 -17.6691 -12.7549 -0.712651 34.8309 16.5793 24.8936 7.65814 4.66018 2.66957 2.06536 7.97442 -90.3811 10.9527 3.93549 -1.13354 -0.71289 3.88179 -1.30588 -23.2964 4.09396 0.103617 -3.28376 4.09397 0.103613 99.9612 -44.2337 -85.8665 27.8103 -45.8965 6.46728 6.553 13.5411 -110.728 -12.3308 -0.481084 -0.786141 -84.203 -45.8092 86.7063 12.2454 60.2807 -1.74871 -28.5017 -14.2774 -110.784 12.2051 -1.03362 -11.7359 13.013 -7.00451 0.0764339 -15.8301 -6.03249 -8.14133 
-82.6185 92.4378 -54.1054 90.467 -40.9635 93.6767 -179.385 40.5126 84.9374 -34.4576 15.6187 -0.292414 44.8206 -7.71936 3.1393 59.1808 -1.78299 5.6199 176.156 -12.2254 95.1449 -65.8775 -23.1399 -1.2757 38.2335 13.8395 8.76557 16.3871 3.10355 4.46675 1.5582 8.53307 -90.5925 9.82369 2.83748 -1.39429 -1.84504 2.77338 -1.51788 -24.404 3.12522 -0.476345 -4.39138 3.12521 -0.476351 100.466 -45.3429 -84.9766 29.0423 -41.0114 10.4665 1.47876 14.7346 -109.806 -8.10353 -0.229844 -1.94101 -83.7307 -47.9164 87.7002 10.4791 56.219 -4.53666 -24.6317 -14.6673 -108.595 11.4258 -0.916194 -11.1841 17.7029 -5.51476 -1.24592 -18.4696 -4.40312 -4.51029 
-63.9806 90.0505 -35.592 98.9303 -38.4444 92.6395 -174.447 24.4715 75.117 -47.4878 18.3708 -3.38039 57.6296 7.21128 22.987 47.2177 -2.345 -1.09419 173.376 8.39967 86.9092 -106.393 -16.4029 -3.31021 40.7596 10.7372 5.51845 18.3744 2.18913 -2.37582 0.417852 9.40388 -89.7272 8.06797 0.953179 0.488083 -3.60253 0.97374 0.445653 -26.1397 0.762373 0.75196 -6.12701 0.76239 0.75196 101.604 -47.402 -83.079 33.3692 -34.4529 18.5314 -3.66079 15.129 -110.084 -9.22262 -0.191859 -2.88075 -84.5587 -49.2909 86.5872 16.8924 50.3357 -18.6091 -23.8369 -14.9045 -103.639 10.319 -0.76217 -10.3863 21.5439 -4.39862 -6.56349 -19.1418 -2.20067 0.873523 
-43.636 88.649 -17.0314 92.0486 -34.0081 88.1078 -178.385 10.7589 75.5467 -50.6123 24.2038 -0.224241 63.1501 15.7424 32.4085 60.5531 -1.96454 5.23084 177.93 40.9654 82.1079 -110.102 -13.4578 -3.64131 41.5797 11.5515 12.9085 30.0246 -0.108456 1.06973 -0.971419 8.38212 -89.5923 10.1171 -1.74984 0.956214 -1.55309 -1.70608 1.0323 -24.097 -1.95632 0.385945 -4.08439 -1.95632 0.385934 102.853 -43.5749 -80.996 43.3366 -31.0626 31.6913 -3.36064 15.2961 -115.018 -10.989 -0.318954 -1.87875 -83.9113 -48.4908 87.4845 32.0932 51.8924 -36.7351 -30.3303 -15.6657 -101.976 7.06442 -0.667094 -11.3469 18.1625 -1.99223 -10.0358 -20.5873 0.421876 4.45965 
-21.607 92.4179 3.28304 92.3485 -31.202 94.1658 -175.01 -12.5182 87.1281 -38.4837 26.2901 4.89315 54.9381 -1.60229 6.73125 59.4437 -3.51368 0.667947 171.975 46.9846 88.5769 -77.2973 -18.8839 -0.68989 47.498 8.93124 5.44997 44.4455 -3.60909 0.788857 -1.65709 7.99366 -90.54 10.8738 -3.54858 -0.737874 -0.792631 -3.57759 -0.580802 -23.3571 -3.16268 -1.77113 -3.34448 -3.16268 -1.77113 101.339 -39.2143 -83.653 49.6924 -24.767 46.7475 -1.36473 14.8926 -120.09 -8.43767 -0.199662 -2.71408 -84.617 -45.6506 86.0353 40.159 58.3187 -46.4806 -31.9655 -16.1617 -105.624 6.74948 -0.599584 -10.7508 15.0747 0.48307 -13.8041 -22.7962 2.24521 11.9396 
